 <svg  version="1.0" xmlns="http://www.w3.org/2000/svg"  width="300.000000pt" height="300.000000pt" viewBox="0 0 300.000000 300.000000"  preserveAspectRatio="xMidYMid meet">  <g transform="translate(0.000000,300.000000) scale(0.050000,-0.050000)" fill="currentColor" stroke="none"> <path d="M1430 5379 c-1122 -169 -1718 -1390 -1185 -2428 89 -173 109 -194 2110 -2211 l645 -650 731 730 c2226 2220 2218 2209 2218 2930 1 888 -611 1573 -1452 1624 -504 31 -813 -99 -1261 -531 l-237 -229 -234 229 c-460 449 -856 608 -1335 536z m578 -315 c183 -67 361 -195 599 -431 l218 -217 -137 -138 c-166 -167 -143 -166 -309 -10 -626 590 -1569 255 -1569 -558 0 -399 -118 -255 1775 -2160 l755 -760 -169 -169 -169 -168 -1186 1196 c-1255 1267 -1280 1294 -1373 1481 -378 764 33 1711 847 1954 170 50 552 40 718 -20z m2812 -21 c545 -203 853 -637 875 -1234 23 -628 -26 -697 -1613 -2279 l-562 -559 -160 159 c-89 88 -159 170 -155 182 3 12 409 432 902 932 1111 1127 1103 1115 1090 1507 -23 685 -760 1044 -1379 671 -38 -23 -475 -448 -973 -946 l-904 -906 -144 143 -143 144 56 66 c189 225 1903 1929 2016 2005 112 75 262 139 424 180 131 33 503 -3 670 -65z m-2832 -801 c72 -35 171 -110 242 -181 l119 -122 -445 -444 -446 -445 -160 166 c-89 91 -178 204 -198 250 -237 536 345 1045 888 776z m2628 10 c430 -218 462 -668 75 -1052 l-151 -149 -445 446 -445 446 140 129 c270 250 562 314 826 180z m-399 -1525 l-153 -153 -60 43 c-32 23 -232 219 -443 436 l-383 394 155 157 156 156 441 -440 440 -440 -153 -153z m-342 -345 c3 -7 -191 -208 -430 -446 l-435 -434 -447 442 -447 442 436 436 435 435 442 -431 c242 -237 443 -437 446 -444z"/> </g> </svg> 